# xmcd CD database file
#
# Track frame offsets:
#	150
#	15907
#	23475
#	37344
#	60552
#	65686
#	70900
#	77044
#	93638
#	116401
#	128380
#	139977
#	149189
#	167129
#	183370
#	196434
#	209800
#	223076
#	245227
#	254498
#	267705
#	270578
#	278698
#	300381
#	313452
#	333029
#
# Disc length: 4565
# Revision: 2
# Processed by: cddbd v1.5.2PL0 Copyright (c) Steve Scherf et al.
# Submitted via: cddb.el 1.0 (Emacs 24.3.50.1)
#
DISCID=9c11d31a
DTITLE=Various Artist - Object Music 1978-1981
DYEAR=2008
DGENRE=Indie
TTITLE0=Spherical Objects - The Kill
TTITLE1=Spherical Objects - The Knot
TTITLE2=Steve Miro and The Eyes - Dreams of Desire
TTITLE3=Steve Miro and The Eyes - Queen of the Sea
TTITLE4=Grow Up - River
TTITLE5=Grow Up - Stay Awake
TTITLE6=Grow Up - 10 Minutes
TTITLE7=Alternomen Unlimited - Facade
TTITLE8=Warriors - Mortal Time/Martial Law
TTITLE9=Steve Miro - Up and About
TTITLE10=Steve Miro - Smiling in Reverse
TTITLE11=Spherical Objects - Seventies Romance
TTITLE12=Spherical Objects - Sweet Tooth
TTITLE13=Contact - Fascinated by Time?
TTITLE14=Contact - Nite Time
TTITLE15=The Passage - Troops Out
TTITLE16=The Passage - My One Request
TTITLE17=Manchester Mekon - The Coke Shop Device
TTITLE18=IQ Zero - Insects
TTITLE19=Grow Up - Joanne
TTITLE20=Grow Up - Affirmation of Existence/Swept Away
TTITLE21=Grow Up - GGGDADGADADAD
TTITLE22=Steve Solamar - Forewarned
TTITLE23=The Noyes Brothers - The Mutant
TTITLE24=The Noyes Brothers - Decision Time
TTITLE25=Alternomen Unlimited - Connections (for ever and ever)
EXTD=
EXTT0=
EXTT1=
EXTT2=
EXTT3=
EXTT4=
EXTT5=
EXTT6=
EXTT7=
EXTT8=
EXTT9=
EXTT10=
EXTT11=
EXTT12=
EXTT13=
EXTT14=
EXTT15=
EXTT16=
EXTT17=
EXTT18=
EXTT19=
EXTT20=
EXTT21=
EXTT22=
EXTT23=
EXTT24=
EXTT25=
PLAYORDER=
